# xmcd
#
# Track frame offsets: 
#        150
#        14099
#        32414
#        49998
#        67296
#        85736
#        104863
#        119810
#        133310
#        149214
#        164854
#        179546
#        201822
#        224755
#        241407
#        256414
#        285672
#        298312
#        318458
#        339931
#
# Disc length: 4767 seconds
#
# Revision: 0
# Processed by: cddbd v1.5.2PL0 Copyright (c) Steve Scherf et al.
# Submitted via: ExactAudioCopy v1.3
#
DISCID=64129d14
DTITLE=Various Artist - Akella Presents - vol.164 - Americana  CD1
DYEAR=2018
DGENRE=Americana
TTITLE0=Johnny And The Headhunters - Chicken House
TTITLE1=Mike Zito - First Class Life
TTITLE2=The Theory - River
TTITLE3=Bill Wharton and The Ingredients - Bayou Tango
TTITLE4=Zachary Richard - Jena Blues
TTITLE5=Gurf Morlix - You Don't Know Me
TTITLE6=Willie May - Looking for Jesus
TTITLE7=Nico Backton - Dig That Boogie
TTITLE8=Too Slim and The Taildraggers - Shaking A Cup
TTITLE9=Chad Elliott - Hills Of Tennessee
TTITLE10=Robert Connely Farr - Hard Time Killing Floor Blues
TTITLE11=Rob Copeland and The Outsiders - Painkillers and Tequila
TTITLE12=Nick Woodland - Long Black Veil
TTITLE13=Erin Harpe and The Delta Swingers - Big Road
TTITLE14=Tom McGuinness - For A Woman Like You
TTITLE15=Lew Jetton - Lay Me Down
TTITLE16=Brian Ames - There Ain't No Grave Gonna Hold My Body Down
TTITLE17=Bishop Gunn - Devil Is A Woman
TTITLE18=The Shadows - Leave Your Radio On
TTITLE19=Howard Wade - Just Can't Keep From Cryin'
EXTD=
EXTT0=
EXTT1=
EXTT2=
EXTT3=
EXTT4=
EXTT5=
EXTT6=
EXTT7=
EXTT8=
EXTT9=
EXTT10=
EXTT11=
EXTT12=
EXTT13=
EXTT14=
EXTT15=
EXTT16=
EXTT17=
EXTT18=
EXTT19=
PLAYORDER=
